<?xml version="1.0" standalone="no"?>
<!DOCTYPE svg PUBLIC "-//W3C//DTD SVG 20010904//EN"
 "http://www.w3.org/TR/2001/REC-SVG-20010904/DTD/svg10.dtd">
<svg version="1.0" xmlns="http://www.w3.org/2000/svg"
 width="366.000000pt" height="354.000000pt" viewBox="0 0 366.000000 354.000000"
 preserveAspectRatio="xMidYMid meet">

<g transform="translate(0.000000,354.000000) scale(0.100000,-0.100000)"
fill="#000000" stroke="none">
<path d="M1700 3234 c-14 -2 -59 -9 -100 -15 -563 -82 -1045 -521 -1190 -1082
-128 -495 5 -1013 357 -1388 321 -340 803 -510 1262 -444 628 91 1108 544
1242 1175 33 151 33 419 0 570 -132 617 -585 1057 -1206 1170 -63 12 -322 22
-365 14z m414 -54 c575 -122 1002 -551 1128 -1131 32 -150 32 -418 0 -568 -74
-338 -248 -627 -502 -834 -517 -420 -1233 -435 -1770 -39 -175 129 -357 355
-448 557 -180 399 -174 839 17 1230 217 444 623 736 1121 805 104 14 341 4
454 -20z"/>
<path d="M1640 3176 c-412 -60 -765 -284 -994 -631 -312 -472 -312 -1088 0
-1560 215 -327 554 -552 934 -622 129 -23 371 -23 500 0 423 78 802 356 1004
737 218 412 218 918 0 1330 -97 182 -265 374 -431 493 -167 119 -375 208 -568
242 -126 23 -329 27 -445 11z m445 -21 c413 -74 790 -350 989 -725 218 -412
218 -918 0 -1330 -200 -377 -572 -649 -994 -727 -129 -23 -371 -23 -500 0
-483 89 -895 430 -1065 883 -122 324 -122 694 0 1018 158 419 525 747 967 862
175 45 414 53 603 19z"/>
<path d="M970 2395 l0 -465 95 0 95 0 0 312 0 313 208 -208 207 -207 208 207
207 208 0 -908 0 -907 80 0 80 0 3 1058 2 1057 3 -1057 2 -1058 295 0 295 0 0
90 0 90 -290 0 -290 0 0 175 0 175 195 0 195 0 0 80 0 80 -195 0 -195 0 0 120
0 120 290 0 290 0 0 95 0 95 -290 0 -290 0 0 500 0 500 -73 0 -72 0 -225 -225
-225 -225 -225 225 -225 225 -78 0 -77 0 0 -465z m380 210 c124 -124 223 -225
220 -225 -3 0 -106 101 -230 225 -124 124 -223 225 -220 225 3 0 106 -101 230
-225z"/>
</g>
</svg>
