<?xml version="1.0" encoding="UTF-8"?><svg id="Calque_1" xmlns="http://www.w3.org/2000/svg" viewBox="0 0 100 100"><defs><style>.cls-1{fill:#fff5ef;}.cls-1,.cls-2,.cls-3{stroke-width:0px;}.cls-2{fill:#fba5b7;}.cls-3{fill:#3a5151;}</style></defs><circle class="cls-1" cx="50" cy="50" r="49"/><path class="cls-3" d="M67.91,45.82c-.1-.08-2.51-2.02-3.12-3.71-1.63-.44-4.13-2.2-4.76-2.72-2.1,2.23-6.39,1.74-6.57,1.71l.04-.35s4.44.51,6.37-1.71l.05-.06h.17s.07.06.07.06c.21.24,3.11,2.34,4.8,2.75l.1.02.03.09c.52,1.61,3.01,3.62,3.03,3.64l-.22.28Z"/><path class="cls-3" d="M72.72,45.7l-.35-.03c.17-1.83-.79-2.89-1.73-3.91-.28-.3-.54-.59-.77-.89-1.17-1.57-7.82-9.18-9.33-9.24-1.42-.06-10.39,2.37-13.77,3.28-.58.16-1.01.27-1.23.33-.34.09-.67.14-1,.19-1.18.19-2.21.35-3.11,2.06l-.31-.17c.99-1.87,2.2-2.06,3.37-2.25.32-.05.64-.1.96-.19.22-.06.65-.17,1.23-.33,5.77-1.56,12.57-3.33,13.87-3.29,1.83.07,8.8,8.31,9.6,9.38.21.29.47.57.74.87.94,1.03,2.01,2.2,1.82,4.19Z"/><path class="cls-3" d="M26.31,77.82c-.24,0-.49-.05-.72-.16-8.13-3.75-10.25-10.95-9.81-12.72v-.06c.06-.22.14-.55.59-.86,2.88-1.96,15.92-17.39,19.01-22.18.59-.91,1.08-1.84,1.46-2.76.4-.96,1.07-2.33,2.02-3.43l.27.23c-.92,1.07-1.58,2.41-1.96,3.34-.39.94-.89,1.89-1.49,2.81-3.19,4.94-16.12,20.24-19.1,22.28-.34.23-.39.45-.43.64l-.02.07c-.42,1.7,1.67,8.65,9.61,12.32.45.21.97.15,1.38-.14.54-.38,1.41-1.13,2.42-2,3.12-2.68,7.84-6.73,10.11-6.47,3.98.44,9.1-3.19,11.8-5.39l.13-.11c.26-.21.85-.47,1.61-.81,1.27-.57,3.02-1.36,3.75-2.16,1.41-1.55,8.85-6.56,13.16-9.41,1.1-.73,2.54-1.75,3.11-2.47.53-.66.83-1.23.78-1.45-.05-.21-.37-.9-2.27-1.25-2.89-.53-8.1,1.2-10.06,2.58-.77.54-1.61,1.22-2.51,1.95-1.41,1.14-2.87,2.33-4.08,2.95-2.06,1.07-4.01.63-4.97-1.12-1.04-1.88-1.63-5.74.3-8.45.98-1.38,1.68-1.79,2.19-2.09.36-.21.59-.35.78-.75l.32.15c-.23.49-.54.67-.92.9-.48.28-1.14.67-2.08,1.99-1.84,2.59-1.27,6.28-.28,8.08.86,1.56,2.63,1.94,4.5.98,1.18-.61,2.62-1.78,4.02-2.91.9-.73,1.75-1.42,2.53-1.96,2.06-1.44,7.31-3.18,10.33-2.64,1.98.36,2.45,1.1,2.55,1.51.11.44-.4,1.2-.85,1.76-.6.75-2.07,1.8-3.19,2.54-3.46,2.29-11.66,7.77-13.1,9.35-.78.86-2.49,1.63-3.87,2.24-.71.32-1.31.59-1.54.77l-.13.1c-2.74,2.24-7.96,5.92-12.06,5.47-2.12-.23-6.77,3.75-9.84,6.38-1.02.87-1.9,1.63-2.45,2.02-.3.22-.66.33-1.02.33Z"/><path class="cls-3" d="M39.14,35.88l-.27-.23c.54-.62,1.11-1.09,1.69-1.4.56-.3,1.33-.68,2.2-1.12,3.27-1.64,8.2-4.11,10.28-5.82,2.25-1.85,3.69-1.83,6.08-1.8.48,0,1.01.01,1.59,0,1.61-.02,3.47.13,5.1.26,1.91.15,3.57.28,4.39.13,1.17-.22,5.53-.77,6.29-.06.13.12.27.37.21.84-.16,1.15-1.42,2.93-3.44,3.95-1.92.98-4.02.7-5.1.44l.08-.34c1.03.24,3.04.51,4.86-.41,2.03-1.03,3.12-2.78,3.25-3.69.04-.25,0-.44-.1-.53-.54-.5-4.23-.18-5.99.15-.87.17-2.55.03-4.48-.12-1.63-.13-3.47-.28-5.07-.26-.59,0-1.11,0-1.6,0-2.38-.03-3.7-.05-5.85,1.72-2.11,1.73-7.06,4.22-10.34,5.87-.87.44-1.63.82-2.2,1.11-.55.29-1.08.73-1.59,1.32Z"/><path class="cls-3" d="M68.17,31.07c-.48-.21-.81-.6-1.15-.97.38.25.79.55,1.24.63,0,0-.08.34-.08.34h0Z"/><path class="cls-3" d="M53.48,41.11c-.5-.14-.88-.49-1.27-.82.41.2.85.44,1.31.47,0,0-.04.35-.04.35h0Z"/><path class="cls-3" d="M59.89,39.25c-.27-.45-.3-.96-.36-1.47.16.42.31.91.63,1.24,0,0-.27.23-.27.23h0Z"/><path class="cls-1" d="M41.43,37.49c-.2.35-.46.94-.65,1.32,0,0-.62,1.35-.62,1.35.15-.47.54-1.67.7-2.12.08-.24.16-.46.26-.71l.31.17h0Z"/><path class="cls-3" d="M62.69,32.16c-.6,0-1.01-.02-1.07-.02l.02-.35c.05,0,5.24.21,6.92-.94l.2.29c-1.31.9-4.42,1.02-6.07,1.02Z"/><path class="cls-3" d="M40.78,34.52l-.26-.24c.25-.26,6.12-6.49,8.9-7.64.87-.36,2.11-.8,3.43-1.26,2.85-1,6.39-2.26,7.81-3.33.36-.27.7-.53,1.03-.79,1.69-1.3,2.92-2.24,3.59-2.24.25,0,.44.24.57.71.39,1.43.14,4.83-2.2,6.2l-.18-.3c1.94-1.14,2.33-3.92,2.12-5.4-.1-.66-.27-.85-.31-.86-.55,0-1.86,1-3.37,2.16-.33.25-.68.52-1.04.79-1.46,1.1-4.88,2.31-7.9,3.38-1.31.46-2.55.9-3.41,1.26-2.71,1.13-8.72,7.49-8.78,7.56Z"/><path class="cls-3" d="M37.87,37.76l-.33-.12c.04-.1,3.73-10.33,6.12-14.56l.03-.04c1.14-2.02,1.97-3.48,2.98-4,.08-.04.29-.11.52.13.71.77,1.22,4.66.14,6.42-1.08,1.76-1.57,4.04-1.57,4.06l-.35-.07c.02-.1.51-2.35,1.62-4.17.96-1.58.52-5.33-.1-6-.06-.07-.09-.06-.1-.05-.92.47-1.72,1.89-2.84,3.86l-.03.04c-2.38,4.2-6.06,14.4-6.09,14.5Z"/><path class="cls-3" d="M84.27,46.01l-17.83-1.58s-.02,0-.03,0c-.01,0-.02,0-.03,0-.31,0-.57.25-.57.57s.25.57.57.57c0,0,0,0,0,0l17.88.45Z"/><path class="cls-3" d="M37.99,75.81c-1.54,0-3.24-.53-5.02-1.6-5.95-3.54-12.02-12.68-12.02-18.1,0-.92.36-2.17,1.38-2.88.77-.54,3.09-.56,4.22-.15.09.03.14.13.1.22-.03.09-.13.14-.22.1-1.03-.37-3.22-.37-3.9.11-.91.64-1.23,1.76-1.23,2.6,0,5.32,5.98,14.31,11.85,17.8,2.86,1.7,5.46,2,7.53.88,1.7-.92,2.34-3.66,1.81-5.96-.02-.09.04-.19.13-.21.09-.02.19.04.21.13.57,2.47-.14,5.35-1.98,6.35-.87.47-1.83.71-2.85.71Z"/><path class="cls-3" d="M52.25,68.52c-1.96,0-4.12-.68-6.4-2.03-7.6-4.53-15.35-16.19-15.35-23.1,0-1.16.46-2.84,1.74-3.74.97-.68,3.1-.79,4.52-.27.09.03.14.13.1.22-.03.09-.13.14-.22.1-1.33-.48-3.32-.39-4.2.23-1.17.82-1.59,2.38-1.59,3.46,0,6.82,7.66,18.33,15.18,22.8,3.67,2.18,7.01,2.57,9.68,1.13,2.19-1.19,3.02-4.76,2.34-7.73-.02-.09.04-.19.13-.21.09-.02.19.04.21.13.72,3.14-.17,6.85-2.51,8.12-1.11.6-2.32.9-3.62.9Z"/><path class="cls-3" d="M26.32,81c-.1,0-.17-.08-.17-.17s.08-.17.17-.17c1.69,0,3.51-1.53,4.04-2.34.73-1.12.07-3.62.06-3.63-.04-.09,0-.19.09-.23.09-.04.19,0,.23.09.03.07.74,2.68-.09,3.96-.6.92-2.51,2.5-4.33,2.5Z"/><circle class="cls-2" cx="28.03" cy="28.64" r=".47"/><circle class="cls-2" cx="29.28" cy="31.97" r=".33"/><circle class="cls-2" cx="33.74" cy="27.68" r=".67"/><path class="cls-2" d="M26.61,36.39s0,0-.01,0c-.08,0-.15-.07-.16-.15-.16-.96-1.34-1.4-1.36-1.41-.07-.02-.11-.09-.12-.16,0-.07.04-.14.1-.17.86-.38,1.36-1.95,1.36-1.97.03-.08.11-.14.2-.12.09.01.15.09.15.17,0,1.05,1.06,1.65,1.07,1.66.05.03.08.08.09.14,0,.06-.02.11-.06.15-.74.65-1.1,1.72-1.1,1.73-.02.07-.09.12-.17.12ZM25.51,34.65c.33.18.84.52,1.11,1.05.17-.36.45-.86.85-1.27-.27-.19-.73-.59-.94-1.19-.21.45-.55,1.06-1.02,1.41Z"/><path class="cls-2" d="M30.74,27.86s0,0-.01,0c-.08,0-.15-.07-.16-.15-.1-.6-.86-.89-.87-.89-.07-.02-.11-.09-.12-.16,0-.07.04-.14.1-.17.46-.2.79-.99.88-1.28.03-.08.11-.13.2-.12.09.01.15.09.15.17,0,.66.68,1.05.69,1.06.05.03.08.08.09.14,0,.06-.02.11-.06.15-.48.42-.72,1.12-.72,1.13-.02.07-.09.12-.17.12ZM30.12,26.63c.2.12.46.31.63.59.11-.22.27-.48.49-.72-.17-.13-.4-.35-.55-.66-.13.27-.32.58-.57.79Z"/><path class="cls-2" d="M33.06,34.1s0,0-.01,0c-.08,0-.15-.07-.16-.15-.11-.68-.96-1-.97-1-.07-.02-.11-.09-.12-.16s.04-.14.1-.17c.61-.27.98-1.41.98-1.42.03-.08.11-.14.2-.12.09.01.15.09.15.17,0,.75.76,1.18.77,1.18.05.03.08.08.09.14,0,.06-.02.11-.06.15-.54.47-.8,1.25-.8,1.26-.02.07-.09.12-.17.12ZM32.34,32.76c.23.13.54.35.73.68.12-.25.31-.56.56-.83-.19-.14-.47-.4-.63-.77-.15.3-.37.67-.66.92Z"/><path class="cls-3" d="M57.45,51.54s-.01,0-.02,0c-.1-.01-.17-.1-.16-.2,0-.08.02-.18.03-.3.08-.97.25-3.24,2.05-4.73,1.46-1.21,3.68-1.66,6.59-1.34.1.01.17.1.16.2-.01.1-.1.17-.2.16-2.81-.31-4.94.11-6.33,1.26-1.69,1.39-1.85,3.48-1.93,4.49,0,.12-.02.22-.03.31-.01.09-.09.16-.18.16Z"/></svg>