<?xml version="1.0" standalone="no"?>
<!DOCTYPE svg PUBLIC "-//W3C//DTD SVG 20010904//EN"
 "http://www.w3.org/TR/2001/REC-SVG-20010904/DTD/svg10.dtd">
<svg version="1.0" xmlns="http://www.w3.org/2000/svg"
 width="370.000000pt" height="365.000000pt" viewBox="0 0 370.000000 365.000000"
 preserveAspectRatio="xMidYMid meet">

<g transform="translate(0.000000,365.000000) scale(0.100000,-0.100000)"
fill="#000000" stroke="none">
<path d="M1624 3365 c-95 -17 -134 -31 -207 -72 -134 -76 -224 -166 -313 -313
-98 -162 -152 -333 -209 -658 -96 -545 -196 -870 -300 -978 -31 -32 -40 -36
-70 -31 -38 6 -42 -1 -23 -36 71 -135 234 -200 372 -148 31 11 59 21 63 21 3
0 -10 -19 -29 -43 -141 -176 -206 -351 -164 -445 17 -37 58 -72 107 -91 26 -9
27 -8 39 37 17 71 56 132 84 132 44 0 96 -84 96 -156 0 -51 -25 -98 -77 -144
-25 -21 -42 -44 -38 -50 10 -16 84 -12 160 10 131 37 250 111 304 190 60 88
65 161 21 304 -42 138 -55 245 -41 354 12 86 47 218 61 227 5 3 37 -8 71 -25
35 -16 91 -36 124 -45 79 -20 226 -20 306 0 60 15 172 65 194 86 17 17 24 9
42 -48 15 -50 17 -95 15 -328 -2 -161 1 -307 8 -360 12 -95 48 -223 81 -287
38 -74 132 -159 158 -143 5 3 1 26 -9 52 -27 71 -66 293 -52 293 2 0 20 -13
38 -30 49 -43 131 -64 219 -57 76 7 200 38 218 56 11 11 12 11 -66 31 -94 25
-175 130 -192 253 l-8 49 59 -60 c74 -76 123 -93 192 -66 51 19 123 88 152
144 l19 38 -28 5 c-104 21 -170 348 -211 1061 -22 370 -90 626 -227 858 -55
93 -200 251 -272 298 -66 41 -232 98 -340 116 -104 17 -231 17 -327 -1z m283
-15 c93 -13 232 -51 310 -86 172 -75 348 -302 442 -567 72 -203 95 -342 116
-682 32 -520 79 -810 151 -940 15 -25 37 -51 51 -56 l24 -9 -33 -46 c-62 -87
-130 -122 -199 -104 -42 11 -115 80 -145 135 -57 106 -45 -84 13 -202 31 -62
100 -128 144 -138 46 -10 34 -22 -40 -39 -144 -33 -239 -13 -314 66 -26 28
-50 48 -53 45 -10 -9 15 -207 36 -287 10 -41 17 -76 14 -79 -9 -10 -74 64
-103 118 -72 136 -93 286 -90 644 3 254 2 276 -18 331 l-21 59 51 47 c29 26
70 74 92 106 22 32 76 95 119 141 44 46 76 83 73 83 -4 0 -36 -30 -72 -67
l-64 -68 -1 70 0 70 73 75 72 75 -72 -70 -73 -69 0 69 0 70 73 75 72 75 -72
-70 -73 -69 0 97 c0 89 2 98 18 93 39 -11 91 -18 101 -12 6 4 -2 31 -19 69
-74 164 -91 295 -45 357 26 36 26 52 0 30 -67 -55 -57 -227 21 -382 13 -26 24
-50 24 -53 0 -9 -72 6 -101 21 -65 33 -122 138 -135 249 -4 30 -10 55 -14 55
-5 0 -13 -22 -20 -49 -17 -70 -62 -136 -117 -171 -25 -16 -48 -28 -49 -27 -2
2 8 25 21 52 27 53 31 97 12 134 -19 39 -30 34 -55 -23 -32 -74 -76 -123 -120
-136 -21 -5 -155 -10 -312 -10 l-275 0 -28 -40 c-35 -50 -127 -150 -137 -150
-4 0 2 33 15 73 33 103 48 219 40 302 -6 67 -18 105 -29 94 -3 -2 0 -35 7 -72
14 -87 0 -208 -41 -334 -26 -82 -28 -93 -13 -93 9 0 27 7 39 16 l22 15 0 -214
0 -214 29 -39 c30 -41 124 -132 179 -174 l34 -25 -26 -75 c-59 -179 -55 -366
14 -564 41 -120 16 -221 -77 -307 -76 -71 -257 -149 -347 -149 -27 0 -27 0 10
32 72 63 93 162 53 245 -58 120 -147 106 -187 -29 -9 -32 -21 -58 -25 -58 -22
0 -70 35 -87 63 -56 92 17 278 190 485 27 33 47 62 44 65 -3 3 -40 -11 -82
-31 -67 -32 -86 -37 -152 -37 -92 0 -134 20 -205 96 l-49 53 31 8 c129 33 256
385 363 1003 51 294 94 442 172 600 171 343 462 503 825 455z m169 -913 c-4
-19 -20 -53 -36 -76 -17 -22 -30 -43 -30 -46 0 -12 43 -4 85 16 52 25 90 66
118 129 l20 44 13 -52 c16 -60 73 -155 103 -172 20 -10 21 -19 21 -273 l0
-262 -51 -68 c-131 -174 -305 -268 -499 -269 -212 0 -369 77 -554 270 l-40 42
67 69 c37 38 67 73 67 78 -1 4 -29 -22 -64 -59 -35 -38 -67 -68 -70 -68 -3 0
-6 28 -6 63 l0 63 72 80 72 79 -72 -70 -72 -69 0 68 0 68 72 77 72 76 -72 -70
-72 -69 0 70 c0 69 0 70 58 146 l57 77 270 1 c165 0 286 4 310 11 47 13 94 60
126 125 21 44 23 46 32 26 5 -11 7 -36 3 -55z"/>
</g>
</svg>
